<?xml version="1.0" encoding="utf-8"?>
<!-- Generator: Adobe Illustrator 16.0.0, SVG Export Plug-In . SVG Version: 6.00 Build 0)  -->
<!DOCTYPE svg PUBLIC "-//W3C//DTD SVG 1.1//EN" "http://www.w3.org/Graphics/SVG/1.1/DTD/svg11.dtd">
<svg version="1.1" id="Layer_1" xmlns="http://www.w3.org/2000/svg" xmlns:xlink="http://www.w3.org/1999/xlink" x="0px" y="0px"
	 width="200px" height="200px" viewBox="55 27.667 200 200" enable-background="new 55 27.667 200 200" xml:space="preserve">
<g>
	<g>
		<path fill="#F74D1E" d="M207.982,194.457c5.9,5.899,5.9,15.341-0.236,21.483c-5.905,5.898-15.58,5.898-21.72,0l-37.775-40.254
			l-35.412,42.611c-3.307,3.541-9.442,3.773-12.746,0l-8.975-9.209c-3.775-3.541-3.775-9.441-0.235-12.983l40.842-38.012
			l-19.593-18.648c-6.612-6.138-10.388-8.029-15.581-6.373c-5.195,1.888-12.514,1.888-19.359-2.599
			c-14.401-9.206-13.69-27.15-13.69-27.15l1.178-1.89l14.872,9.68c0,0,9.207,5.666,16.292-5.195
			c8.024-12.747-0.947-17.938-0.947-17.938l-14.872-9.448l1.418-1.889c0,0,13.69-8.733,29.743,0.471
			c9.918,5.903,14.876,17.472,12.277,28.804c-1.418,6.843,0,9.208,5.43,15.108l19.832,19.595l23.136-23.528l17.473,17.47
			l-23.141,22.583L207.982,194.457z M231.824,121.978c2.835-2.834,7.559-2.361,10.151,0.231l2.599,2.601
			c2.834,2.834,2.36,7.08-0.232,9.677l-14.168,14.163c-2.832,2.835-7.084,3.071-9.917,0.239l-2.597-2.597
			c-2.834-2.836-2.834-7.32,0-10.153c0.474-1.652-0.944-4.723-3.777-7.557c-5.9-5.903-12.748-6.139-16.053-3.07l-4.72,4.96
			l-17.237-17.71l4.962-4.719c5.428-5.665-0.71-11.565-0.71-11.565c-15.106-15.111-36.36-14.64-36.36-14.64l-0.236-5.666
			c43.206-11.329,59.495,7.556,65.399,13.221l12.511,12.513c3.071,3.305-0.234,12.278,4.25,16.998
			C227.578,121.026,229.938,121.739,231.824,121.978z M197.124,213.105c4.483,0,8.026-3.542,8.026-8.026
			c0-4.488-3.543-8.029-8.026-8.029c-4.486,0-8.028,3.541-8.028,8.029C189.095,209.563,192.634,213.105,197.124,213.105z"/>
		
			<line fill="none" stroke="#FFFFFF" stroke-width="4.7349" stroke-miterlimit="10" x1="214.504" y1="136.139" x2="233.077" y2="117.853"/>
	</g>
	<path fill="none" stroke="#FFFFFF" stroke-width="5.0624" stroke-miterlimit="10" d="M128.891,157.267"/>
	<path fill="none" stroke="#FFFFFF" stroke-width="4.8802" stroke-miterlimit="10" d="M170.278,156.895"/>
	<path fill="none" stroke="#FFFFFF" stroke-width="4.8802" stroke-miterlimit="10" d="M149.385,178.092"/>
	<path fill="none" stroke="#FFFFFF" stroke-width="4.7769" stroke-miterlimit="10" d="M129.79,156.668"/>
	<path fill="none" stroke="#FFFFFF" stroke-width="4.931" stroke-miterlimit="10" d="M168.407,158.266"/>
	<path fill="none" stroke="#FFFFFF" stroke-width="4.931" stroke-miterlimit="10" d="M149.392,177.787"/>
	
		<line fill="none" stroke="#FFFFFF" stroke-width="4.8802" stroke-miterlimit="10" x1="129.591" y1="156.75" x2="147.338" y2="138.518"/>
	
		<line fill="none" stroke="#FFFFFF" stroke-width="4.8802" stroke-miterlimit="10" x1="149.846" y1="177.603" x2="168.387" y2="158.396"/>
</g>
</svg>
