<?xml version="1.0" encoding="utf-8"?>
<!-- Generator: Adobe Illustrator 16.0.0, SVG Export Plug-In . SVG Version: 6.00 Build 0)  -->
<!DOCTYPE svg PUBLIC "-//W3C//DTD SVG 1.1//EN" "http://www.w3.org/Graphics/SVG/1.1/DTD/svg11.dtd">
<svg version="1.1" id="Layer_1" xmlns="http://www.w3.org/2000/svg" xmlns:xlink="http://www.w3.org/1999/xlink" x="0px" y="0px"
	 width="96.667px" height="163px" viewBox="-2.667 0 96.667 163" enable-background="new -2.667 0 96.667 163" xml:space="preserve"
	>
<path fill="none" stroke="#F74D1E" stroke-width="5.6" stroke-miterlimit="10" d="M69.222,123.993
	c0-12.576-10.261-22.772-22.914-22.772c-12.655,0-22.914,10.196-22.914,22.772s10.259,22.775,22.914,22.775
	C58.96,146.768,69.222,136.571,69.222,123.993z"/>
<path fill="none" stroke="#F74D1E" stroke-width="5.6" stroke-miterlimit="10" d="M3.058,121.783
	c2.371-17.037,12.165-48.138,19.988-66.82C33.72,29.47,59.113,20.3,71.599,54.884c6.751,16.053,17.532,66.899,17.532,66.899
	s5.975,27.875-23.909,34.936C65.222,156.719-3.747,170.632,3.058,121.783z"/>
<path fill="#F74D1E" d="M66.816,68.666c-0.681-24.61-27.099-16.737-27.099-16.737c-11.157,3.587-10.701,13.347-11.016,16.271
	c-0.82,7.638-4.647,58.891,17.887,59.942C59.113,128.721,68.164,117.129,66.816,68.666z"/>
<path fill="#FFFFFF" d="M61.636,68.465c0-4.07-3.73-7.373-8.339-7.373H42.48c-4.607,0-8.337,3.301-8.337,7.373l0,0
	c0,4.072,3.73,7.372,8.337,7.372h10.817C57.906,75.837,61.636,72.537,61.636,68.465L61.636,68.465z"/>
<circle fill="#FFFFFF" cx="47.199" cy="110.317" r="4.971"/>
<path fill="none" stroke="#FFFFFF" stroke-width="3.2698" stroke-linecap="round" stroke-miterlimit="10" d="M35.88,110.314
	c0,0-4.582-20.534,11.654-21.329c0,0,15.442-0.377,10.661,21.329"/>
<g>
	<g>
		<path fill="#F74D1E" d="M29.761,124.153c-0.743,4.087,0.219,8.007,3.11,11.049c2.833,2.973,6.963,4.387,10.96,4.813
			c9.123,0.979,17.901-4.606,19.291-13.95c0.295-2.01-2.773-2.875-3.074-0.847c-0.554,3.705-2.254,7.007-5.392,9.15
			c-2.919,1.99-6.502,2.697-9.983,2.526c-6.429-0.32-13.143-4.724-11.84-11.891C33.201,122.993,30.129,122.134,29.761,124.153
			L29.761,124.153z"/>
	</g>
</g>
</svg>
