<?xml version="1.0" encoding="utf-8"?>
<!-- Generator: Adobe Illustrator 16.0.0, SVG Export Plug-In . SVG Version: 6.00 Build 0)  -->
<!DOCTYPE svg PUBLIC "-//W3C//DTD SVG 1.1//EN" "http://www.w3.org/Graphics/SVG/1.1/DTD/svg11.dtd">
<svg version="1.1" id="Layer_1" xmlns="http://www.w3.org/2000/svg" xmlns:xlink="http://www.w3.org/1999/xlink" x="0px" y="0px"
	 width="147.333px" height="149.333px" viewBox="0 0 147.333 149.333" enable-background="new 0 0 147.333 149.333"
	 xml:space="preserve">
<circle fill="#AAD048" stroke="#623633" stroke-width="6" stroke-miterlimit="10" cx="73.905" cy="75.434" r="70"/>
<g>
	<path fill="#623633" d="M56.216,80.792c-0.35,0.166-0.738,0.287-1.162,0.361c-0.426,0.075-0.788,0.112-1.088,0.112
		c-1.084,0-2.009-0.13-2.775-0.388c-0.767-0.258-1.396-0.625-1.887-1.101c-0.492-0.476-0.855-1.046-1.088-1.712
		c-0.234-0.667-0.35-1.4-0.35-2.199c0-0.668,0.111-1.352,0.337-2.051c0.226-0.7,0.579-1.338,1.063-1.913
		c0.484-0.575,1.096-1.05,1.837-1.425c0.742-0.375,1.639-0.563,2.688-0.563c2.15,0,3.771,0.662,4.863,1.987
		c1.092,1.325,1.637,3.229,1.637,5.713c0,1.635-0.212,3.075-0.637,4.325c-0.426,1.25-1.084,2.3-1.975,3.149
		c-0.893,0.851-2.029,1.496-3.413,1.938c-1.384,0.441-3.024,0.671-4.925,0.688c-0.018-0.532-0.042-1.049-0.075-1.549
		c-0.034-0.5-0.067-1.018-0.101-1.551c0.951-0.017,1.809-0.088,2.576-0.213c0.766-0.125,1.441-0.333,2.024-0.625
		c0.583-0.291,1.079-0.679,1.487-1.162C55.66,82.131,55.982,81.524,56.216,80.792z M54.391,78.366c0.384,0,0.783-0.037,1.2-0.111
		c0.416-0.075,0.725-0.18,0.925-0.313v-0.226c0-0.066,0.004-0.133,0.013-0.2c0.008-0.065,0.012-0.125,0.012-0.175
		c-0.016-0.6-0.066-1.162-0.149-1.688c-0.083-0.524-0.226-0.983-0.425-1.375c-0.2-0.392-0.471-0.7-0.813-0.925
		c-0.342-0.225-0.763-0.338-1.263-0.338c-0.399,0-0.75,0.084-1.05,0.25c-0.301,0.167-0.542,0.384-0.725,0.65
		c-0.184,0.267-0.322,0.559-0.413,0.875c-0.092,0.316-0.138,0.625-0.138,0.924c0,0.9,0.221,1.568,0.662,2
		C52.669,78.149,53.391,78.366,54.391,78.366z"/>
	<path fill="#623633" d="M64.916,87.667c0.1-1.217,0.309-2.483,0.625-3.801c0.316-1.316,0.704-2.607,1.162-3.875
		c0.459-1.267,0.971-2.463,1.538-3.588c0.566-1.125,1.142-2.096,1.726-2.912h-7.525v-3.175h12.125v2.699
		c-0.533,0.584-1.121,1.393-1.763,2.426c-0.642,1.033-1.25,2.204-1.825,3.513c-0.574,1.309-1.074,2.713-1.5,4.213
		c-0.425,1.5-0.688,3-0.787,4.5H64.916L64.916,87.667z"/>
	<path fill="#623633" d="M85.292,74.791c0,1.566-0.4,2.767-1.201,3.6c-0.799,0.834-1.875,1.25-3.225,1.25
		c-1.351,0-2.425-0.416-3.226-1.25c-0.8-0.833-1.199-2.033-1.199-3.6s0.399-2.767,1.199-3.6c0.801-0.834,1.875-1.25,3.226-1.25
		c1.35,0,2.426,0.416,3.225,1.25C84.89,72.024,85.292,73.224,85.292,74.791z M82.465,74.791c0-0.85-0.149-1.467-0.45-1.85
		c-0.3-0.384-0.685-0.575-1.149-0.575c-0.482,0-0.871,0.191-1.162,0.575c-0.291,0.383-0.438,1-0.438,1.85s0.146,1.471,0.438,1.862
		c0.291,0.391,0.68,0.588,1.162,0.588c0.467,0,0.85-0.195,1.149-0.588C82.316,76.26,82.465,75.64,82.465,74.791z M90.167,70.34
		h3.475l-9.775,17.325H80.39L90.167,70.34z M97.64,83.215c0,1.566-0.399,2.767-1.199,3.601c-0.801,0.833-1.875,1.25-3.226,1.25
		c-1.352,0-2.426-0.417-3.227-1.25c-0.799-0.834-1.199-2.032-1.199-3.601c0-1.566,0.4-2.768,1.199-3.6
		c0.801-0.834,1.875-1.25,3.227-1.25c1.351,0,2.425,0.416,3.226,1.25C97.241,80.45,97.64,81.649,97.64,83.215z M94.816,83.215
		c0-0.85-0.149-1.467-0.45-1.85c-0.3-0.385-0.685-0.576-1.15-0.576c-0.482,0-0.87,0.191-1.162,0.576
		c-0.291,0.383-0.438,1-0.438,1.85c0,0.851,0.146,1.472,0.438,1.861c0.292,0.394,0.68,0.588,1.162,0.588
		c0.467,0,0.852-0.194,1.15-0.588C94.667,84.687,94.816,84.066,94.816,83.215z"/>
</g>
</svg>
