<?xml version="1.0" encoding="utf-8"?>
<!-- Generator: Adobe Illustrator 16.0.0, SVG Export Plug-In . SVG Version: 6.00 Build 0)  -->
<!DOCTYPE svg PUBLIC "-//W3C//DTD SVG 1.1//EN" "http://www.w3.org/Graphics/SVG/1.1/DTD/svg11.dtd">
<svg version="1.1" id="Layer_1" xmlns="http://www.w3.org/2000/svg" xmlns:xlink="http://www.w3.org/1999/xlink" x="0px" y="0px"
	 width="200px" height="200px" viewBox="62 31.333 200 200" enable-background="new 62 31.333 200 200" xml:space="preserve">
<g>
	<path fill="#F74D1E" d="M159.513,196.558c0.312,1.49,0.289,3.043-0.147,4.537c-0.371,1.394-1.126,2.697-2.151,3.789
		c-3.496,3.518-9.197,3.618-12.755,0.175l-19.438-19.051l-3.419,5.313l19.459,19.05c4.828,4.68,15.308,4.392,20.051-0.427
		c1.642-1.675,3.963-5.485,4.451-7.688l43.475,0.039c5.017,0,10.363,5.064,10.363,10.054c0,5.051-2.687,11.639-10.578,11.639
		h-71.521c-5.857,0-10.995-4.574-13.805-6.957l-37.017-30.195l-22.702,0.102l-0.041-34.727h0.191v-0.298h45.286
		c0,0,4.745,0.109,8.004,2.004c3.008,1.759,5.693,4.326,5.693,4.326l34.087,33.958C158.239,193.38,159.097,194.871,159.513,196.558z
		"/>
	<rect x="217.184" y="106.484" fill="#F74D1E" width="43.816" height="39.365"/>
	<rect x="166.203" y="106.484" fill="#F74D1E" width="43.828" height="39.365"/>
	<rect x="166.203" y="153.001" fill="#F74D1E" width="43.828" height="41.363"/>
	<rect x="217.184" y="153.001" fill="#F74D1E" width="43.816" height="41.363"/>
	<g>
		<path fill="none" stroke="#F74D1E" stroke-width="5.2811" stroke-miterlimit="10" d="M210.324,99.45
			c0,0-20.136-21.037-14.844-29.769C195.48,69.681,209.968,56.711,210.324,99.45z"/>
		<path fill="none" stroke="#F74D1E" stroke-width="5.2811" stroke-miterlimit="10" d="M216.895,99.45
			c0,0,20.127-21.037,14.833-29.769C231.728,69.681,217.25,56.711,216.895,99.45z"/>
	</g>
</g>
</svg>
