<?xml version="1.0" encoding="utf-8"?>
<!-- Generator: Adobe Illustrator 16.0.0, SVG Export Plug-In . SVG Version: 6.00 Build 0)  -->
<!DOCTYPE svg PUBLIC "-//W3C//DTD SVG 1.1//EN" "http://www.w3.org/Graphics/SVG/1.1/DTD/svg11.dtd">
<svg version="1.1" id="Layer_1" xmlns="http://www.w3.org/2000/svg" xmlns:xlink="http://www.w3.org/1999/xlink" x="0px" y="0px"
	 width="185px" height="177px" viewBox="0 0 185 177" enable-background="new 0 0 185 177" xml:space="preserve">
<g>
	<g>
		<path id="right_antenna_1_" fill="#F74D1E" d="M142.519,55.024c-0.3,1.105-1.255,1.766-2.112,1.462l0,0
			c-0.867-0.31-1.313-1.456-1.003-2.567l11.621-41.653c0.3-1.105,1.25-1.761,2.111-1.457l0,0c0.866,0.303,1.31,1.447,0.998,2.558
			L142.519,55.024z"/>
		<path id="left_antenna_1_" fill="#F74D1E" d="M138.281,53.552c0.678,0.752,0.715,1.959,0.077,2.684l0,0
			c-0.628,0.722-1.7,0.68-2.386-0.075l-25.54-28.621c-0.685-0.755-0.716-1.97-0.079-2.684l0,0c0.635-0.717,1.702-0.68,2.385,0.079
			L138.281,53.552z"/>
	</g>
	<path id="tv_x5F_outer_1_" fill="none" stroke="#F74D1E" stroke-width="5.3655" stroke-miterlimit="10" d="M178.387,163.434
		c0,4.119-3.659,7.463-8.189,7.463H14.807c-4.523,0-8.193-3.344-8.193-7.463V64.255c0-4.126,3.67-7.476,8.193-7.476h155.391
		c4.53,0,8.189,3.351,8.189,7.476V163.434L178.387,163.434z"/>
	<path id="inner_x5F_tv_1_" fill="#F74D1E" d="M144.576,148.973c0,2.92-2.545,5.286-5.679,5.286H31.167
		c-3.137,0-5.684-2.366-5.684-5.286V78.712c0-2.919,2.547-5.284,5.684-5.284h107.731c3.136,0,5.679,2.365,5.679,5.284V148.973z"/>
	<path fill="#FFFFFF" stroke="#F74D1E" stroke-width="3.1166" d="M168.404,83.492c0,3.921-3.176,7.087-7.083,7.087
		c-3.909,0-7.084-3.166-7.084-7.087c0-3.91,3.177-7.087,7.084-7.087C165.228,76.405,168.404,79.583,168.404,83.492z"/>
	<path fill="#FFFFFF" stroke="#F74D1E" stroke-width="3.1166" d="M168.404,103.785c0,3.914-3.176,7.091-7.083,7.091
		c-3.909,0-7.084-3.177-7.084-7.091c0-3.917,3.177-7.094,7.084-7.094C165.228,96.691,168.404,99.868,168.404,103.785z"/>
	<path fill="#FFFFFF" stroke="#F74D1E" stroke-width="3.1166" d="M168.404,123.626c0,3.91-3.176,7.085-7.083,7.085
		c-3.909,0-7.084-3.175-7.084-7.085c0-3.911,3.177-7.084,7.084-7.084C165.228,116.543,168.404,119.715,168.404,123.626z"/>
	<path fill="none" stroke="#FFFFFF" stroke-width="3.1166" d="M124.488,80.642h8.79c0,0,3.132,0.104,3.802,4.413v6.974"/>
</g>
</svg>
