<?xml version="1.0" encoding="utf-8"?>
<!-- Generator: Adobe Illustrator 16.0.0, SVG Export Plug-In . SVG Version: 6.00 Build 0)  -->
<!DOCTYPE svg PUBLIC "-//W3C//DTD SVG 1.1//EN" "http://www.w3.org/Graphics/SVG/1.1/DTD/svg11.dtd">
<svg version="1.1" id="Layer_1" xmlns="http://www.w3.org/2000/svg" xmlns:xlink="http://www.w3.org/1999/xlink" x="0px" y="0px"
	 width="148.667px" height="149.333px" viewBox="0 0 148.667 149.333" enable-background="new 0 0 148.667 149.333"
	 xml:space="preserve">
<circle fill="#AAD048" stroke="#623633" stroke-width="6" stroke-miterlimit="10" cx="74.211" cy="74.998" r="70"/>
<g>
	<path fill="#623633" d="M28.17,89.374c-0.45,0-0.925-0.028-1.425-0.088c-0.5-0.059-0.983-0.137-1.45-0.236
		c-0.467-0.1-0.892-0.209-1.275-0.325c-0.383-0.115-0.684-0.226-0.9-0.324l0.725-3.101c0.433,0.185,0.987,0.38,1.663,0.589
		c0.675,0.207,1.512,0.313,2.512,0.313c1.15,0,1.992-0.218,2.525-0.65c0.533-0.434,0.8-1.018,0.8-1.75
		c0-0.451-0.096-0.83-0.288-1.139c-0.192-0.308-0.454-0.558-0.788-0.75c-0.333-0.191-0.729-0.324-1.188-0.398
		c-0.458-0.076-0.946-0.113-1.462-0.113h-1.45v-3h1.65c0.366,0,0.721-0.033,1.063-0.102c0.341-0.065,0.646-0.178,0.913-0.336
		c0.266-0.158,0.479-0.375,0.637-0.65c0.158-0.275,0.238-0.621,0.238-1.037c0-0.316-0.067-0.592-0.2-0.824
		c-0.134-0.234-0.304-0.426-0.513-0.576s-0.45-0.263-0.725-0.338c-0.275-0.074-0.555-0.112-0.838-0.112
		c-0.717,0-1.379,0.108-1.987,0.325c-0.608,0.217-1.163,0.483-1.663,0.8l-1.325-2.725c0.266-0.167,0.579-0.342,0.938-0.525
		c0.358-0.183,0.754-0.35,1.188-0.5c0.433-0.149,0.896-0.274,1.387-0.375c0.492-0.1,1.013-0.149,1.563-0.149
		c1.017,0,1.896,0.12,2.638,0.361c0.742,0.242,1.354,0.583,1.837,1.023c0.483,0.441,0.842,0.957,1.075,1.548s0.35,1.235,0.35,1.935
		c0,0.683-0.191,1.344-0.575,1.983c-0.383,0.642-0.899,1.129-1.55,1.461c0.9,0.367,1.596,0.914,2.088,1.641
		c0.491,0.725,0.737,1.598,0.737,2.615c0,0.801-0.134,1.539-0.4,2.215c-0.266,0.676-0.684,1.26-1.25,1.752
		c-0.566,0.492-1.287,0.877-2.162,1.152C30.408,89.238,29.37,89.374,28.17,89.374z"/>
	<path fill="#623633" d="M50.02,80.299c0,2.916-0.554,5.154-1.663,6.713c-1.107,1.559-2.637,2.336-4.587,2.336
		s-3.479-0.777-4.587-2.336c-1.109-1.559-1.663-3.797-1.663-6.713c0-1.451,0.146-2.734,0.438-3.85
		c0.292-1.117,0.712-2.06,1.263-2.826c0.55-0.767,1.208-1.35,1.975-1.75c0.767-0.4,1.625-0.6,2.575-0.6
		c1.95,0,3.479,0.779,4.587,2.337C49.466,75.17,50.02,77.399,50.02,80.299z M46.22,80.299c0-0.867-0.042-1.654-0.125-2.363
		c-0.084-0.708-0.217-1.32-0.4-1.838c-0.184-0.516-0.434-0.916-0.75-1.199c-0.316-0.283-0.709-0.426-1.175-0.426
		c-0.467,0-0.854,0.143-1.163,0.426c-0.309,0.283-0.559,0.684-0.75,1.199c-0.191,0.518-0.328,1.13-0.412,1.838
		c-0.084,0.709-0.125,1.496-0.125,2.363s0.041,1.658,0.125,2.375s0.221,1.334,0.412,1.85c0.191,0.518,0.441,0.916,0.75,1.199
		c0.309,0.285,0.696,0.426,1.163,0.426c0.466,0,0.858-0.141,1.175-0.426c0.316-0.283,0.566-0.682,0.75-1.199
		c0.184-0.516,0.316-1.133,0.4-1.85C46.178,81.958,46.22,81.167,46.22,80.299z"/>
	<path fill="#623633" d="M60.595,76.124c0,1.566-0.4,2.768-1.201,3.6c-0.799,0.834-1.875,1.25-3.225,1.25s-2.425-0.416-3.225-1.25
		c-0.801-0.833-1.2-2.033-1.2-3.6c0-1.565,0.399-2.767,1.2-3.6c0.8-0.834,1.875-1.25,3.225-1.25s2.426,0.416,3.225,1.25
		C60.195,73.357,60.595,74.558,60.595,76.124z M57.769,76.124c0-0.85-0.149-1.466-0.449-1.85c-0.301-0.384-0.684-0.575-1.15-0.575
		c-0.483,0-0.871,0.191-1.162,0.575c-0.292,0.383-0.438,1-0.438,1.85c0,0.851,0.146,1.472,0.438,1.862
		c0.291,0.392,0.679,0.589,1.162,0.589c0.467,0,0.85-0.197,1.15-0.589C57.62,77.595,57.769,76.974,57.769,76.124z M65.47,71.674
		h3.475L59.17,88.999h-3.475L65.47,71.674z M72.945,84.549c0,1.566-0.4,2.766-1.2,3.6c-0.8,0.834-1.875,1.25-3.226,1.25
		c-1.35,0-2.424-0.416-3.225-1.25c-0.8-0.834-1.199-2.033-1.199-3.6c0-1.567,0.399-2.768,1.199-3.6
		c0.801-0.834,1.875-1.25,3.225-1.25c1.351,0,2.426,0.416,3.226,1.25C72.544,81.782,72.945,82.983,72.945,84.549z M70.12,84.549
		c0-0.85-0.149-1.467-0.45-1.85c-0.3-0.386-0.684-0.576-1.15-0.576c-0.482,0-0.871,0.19-1.162,0.576
		c-0.291,0.383-0.438,1-0.438,1.85s0.146,1.471,0.438,1.861c0.291,0.393,0.68,0.588,1.162,0.588c0.467,0,0.851-0.195,1.15-0.588
		C69.97,86.02,70.12,85.399,70.12,84.549z"/>
	<path fill="#623633" d="M74.445,79.848h7.25v3.375h-7.25V79.848z"/>
	<path fill="#623633" d="M93.945,71.674v10.401h1.85v3.049h-1.85v3.875h-3.65v-3.875H82.82v-2.725
		c0.366-0.732,0.825-1.563,1.375-2.488c0.551-0.924,1.162-1.875,1.838-2.849c0.676-0.976,1.387-1.929,2.137-2.862
		c0.75-0.933,1.5-1.775,2.25-2.525L93.945,71.674L93.945,71.674z M90.294,76.224c-0.649,0.851-1.342,1.774-2.074,2.774
		c-0.734,1-1.352,2.025-1.852,3.076h3.926V76.224z"/>
	<path fill="#623633" d="M109.871,80.299c0,2.916-0.556,5.154-1.664,6.713c-1.106,1.559-2.637,2.336-4.586,2.336
		c-1.951,0-3.479-0.777-4.588-2.336c-1.109-1.559-1.662-3.797-1.662-6.713c0-1.451,0.146-2.734,0.438-3.85
		c0.292-1.117,0.712-2.06,1.263-2.826c0.55-0.767,1.208-1.35,1.976-1.75c0.767-0.4,1.625-0.6,2.574-0.6
		c1.95,0,3.479,0.779,4.588,2.337C109.315,75.17,109.871,77.399,109.871,80.299z M106.07,80.299c0-0.867-0.042-1.654-0.125-2.363
		c-0.084-0.708-0.217-1.32-0.4-1.838c-0.184-0.516-0.434-0.916-0.75-1.199c-0.315-0.283-0.709-0.426-1.174-0.426
		c-0.468,0-0.854,0.143-1.164,0.426c-0.309,0.283-0.559,0.684-0.75,1.199c-0.19,0.518-0.328,1.13-0.412,1.838
		c-0.084,0.709-0.125,1.496-0.125,2.363s0.041,1.658,0.125,2.375s0.222,1.334,0.412,1.85c0.191,0.518,0.441,0.916,0.75,1.199
		c0.31,0.285,0.696,0.426,1.164,0.426c0.465,0,0.857-0.141,1.174-0.426c0.316-0.283,0.566-0.682,0.75-1.199
		c0.185-0.516,0.316-1.133,0.4-1.85C106.028,81.958,106.07,81.167,106.07,80.299z"/>
	<path fill="#623633" d="M120.444,76.124c0,1.566-0.399,2.768-1.198,3.6c-0.802,0.834-1.875,1.25-3.227,1.25
		c-1.35,0-2.426-0.416-3.225-1.25c-0.801-0.833-1.2-2.033-1.2-3.6c0-1.565,0.399-2.767,1.2-3.6c0.8-0.834,1.875-1.25,3.225-1.25
		c1.352,0,2.425,0.416,3.227,1.25C120.044,73.357,120.444,74.558,120.444,76.124z M117.621,76.124c0-0.85-0.15-1.466-0.451-1.85
		c-0.299-0.384-0.684-0.575-1.149-0.575c-0.483,0-0.871,0.191-1.162,0.575c-0.292,0.383-0.438,1-0.438,1.85
		c0,0.851,0.146,1.472,0.438,1.862c0.291,0.392,0.679,0.589,1.162,0.589c0.467,0,0.851-0.197,1.149-0.589
		C117.469,77.594,117.621,76.974,117.621,76.124z M125.319,71.674h3.476l-9.774,17.325h-3.476L125.319,71.674z M132.794,84.549
		c0,1.566-0.4,2.766-1.2,3.6s-1.875,1.25-3.226,1.25s-2.426-0.416-3.226-1.25s-1.2-2.033-1.2-3.6c0-1.567,0.4-2.768,1.2-3.6
		c0.8-0.834,1.875-1.25,3.226-1.25s2.426,0.416,3.226,1.25C132.394,81.782,132.794,82.983,132.794,84.549z M129.968,84.549
		c0-0.85-0.149-1.467-0.449-1.85c-0.301-0.386-0.684-0.576-1.148-0.576c-0.484,0-0.871,0.19-1.164,0.576
		c-0.291,0.383-0.438,1-0.438,1.85s0.146,1.471,0.438,1.861c0.293,0.393,0.68,0.588,1.164,0.588c0.465,0,0.85-0.195,1.148-0.588
		C129.819,86.02,129.968,85.399,129.968,84.549z"/>
</g>
</svg>
