<?xml version="1.0" encoding="utf-8"?>
<!-- Generator: Adobe Illustrator 16.0.0, SVG Export Plug-In . SVG Version: 6.00 Build 0)  -->
<!DOCTYPE svg PUBLIC "-//W3C//DTD SVG 1.1//EN" "http://www.w3.org/Graphics/SVG/1.1/DTD/svg11.dtd">
<svg version="1.1" id="Layer_1" xmlns="http://www.w3.org/2000/svg" xmlns:xlink="http://www.w3.org/1999/xlink" x="0px" y="0px"
	 width="70px" height="177px" viewBox="0 0 70 177" enable-background="new 0 0 70 177" xml:space="preserve">
<g>
	<g>
		<g>
			<g>
				<defs>
					<rect id="SVGID_1_" x="4.764" y="27.5" width="63.528" height="146.04"/>
				</defs>
				<clipPath id="SVGID_2_">
					<use xlink:href="#SVGID_1_"  overflow="visible"/>
				</clipPath>
				<path clip-path="url(#SVGID_2_)" fill="#EF5024" d="M37.622,115.01c0.236,1.163,1.179,2.012,2.368,2.346
					c0.605,0.162,1.271,0.215,1.954,0.071c0.827-0.172,1.532-0.563,2.069-1.088c0.776-0.759,1.176-1.791,0.963-2.833
					c-0.358-1.748-2.289-2.833-4.325-2.418c-0.497,0.105-0.962,0.285-1.362,0.536c-1.225,0.74-1.923,2.053-1.674,3.366
					L37.622,115.01z"/>
			</g>
		</g>
	</g>
	<g>
		<g>
			<g>
				<defs>
					<rect id="SVGID_3_" x="4.764" y="27.5" width="63.528" height="146.04"/>
				</defs>
				<clipPath id="SVGID_4_">
					<use xlink:href="#SVGID_3_"  overflow="visible"/>
				</clipPath>
				<path clip-path="url(#SVGID_4_)" fill="#F74D1E" d="M68.436,78.321c-0.688-9.476-6.477-15.615-11.616-21.063
					c-3.824-4.051-7.281-7.715-8.878-12.415c0.49-0.707,0.775-1.561,0.775-2.481V33.57c0-0.243-0.029-0.47-0.068-0.698
					c1.162-0.321,2.019-1.37,2.019-2.632c0-1.512-1.228-2.739-2.739-2.739h-22.82c-1.512,0-2.735,1.227-2.735,2.739
					c0,1.262,0.854,2.311,2.009,2.632c-0.035,0.229-0.063,0.456-0.063,0.698v8.792c0,1.012,0.355,1.934,0.934,2.674
					c-1.626,4.6-5.033,8.229-8.807,12.222C11.303,62.706,5.52,68.846,4.836,78.321h-0.07v87.004c0,4.028,3.281,7.302,7.301,7.302
					h49.133c4.029,0,7.301-3.271,7.301-7.302V78.321H68.436z M62.659,165.325c0,0.805-0.658,1.46-1.462,1.46H12.064
					c-0.805,0-1.463-0.655-1.463-1.46v-20.787h52.058V165.325L62.659,165.325z M27.34,99.673c2.66-2.789,6.219-3.253,8.68-3.216
					c3.871,0.063,5.675,0.934,7.25,1.943c0.828,0.537,1.507,1.156,2.076,1.842l3.062-3.047c-0.149-1.359-0.174-3,0.385-3.877
					c0.111-0.229,0.261-0.435,0.455-0.629c0.657-0.655,1.599-0.861,2.433-0.627c0.383,0.113,0.754,0.32,1.062,0.627
					c0.535,0.543,0.776,1.269,0.716,1.984c0.702-0.072,1.432,0.162,1.975,0.704c0.306,0.308,0.513,0.677,0.627,1.062
					c0.242,0.838,0.027,1.778-0.627,2.433c-0.191,0.19-0.401,0.344-0.631,0.457c-0.869,0.555-2.515,0.526-3.871,0.385l-3.777,3.779
					c0.926,2.739,0.777,5.67,0.271,7.546c-0.572,2.123-0.106,4.123-0.106,4.123c1.745,2.066,1.049,3.68,1.049,3.68
					c-0.11,0.499-0.365,0.868-0.701,1.145l3.267,3.267c1.355-0.14,2.998-0.161,3.869,0.394c0.229,0.113,0.439,0.258,0.639,0.457
					c0.656,0.656,0.863,1.6,0.617,2.433c-0.104,0.385-0.318,0.755-0.617,1.062c-0.551,0.535-1.278,0.778-1.983,0.715
					c0.063,0.705-0.172,1.432-0.714,1.974c-0.307,0.31-0.669,0.514-1.063,0.63c-0.826,0.241-1.769,0.036-2.433-0.63
					c-0.192-0.185-0.342-0.397-0.446-0.627c-0.564-0.87-0.541-2.523-0.393-3.872l-5.029-5.032c-1.433,0.476-1.248,3.315-1.248,3.315
					c-0.293,2.541-1.391,2.541-1.391,2.541c-1.055,0.084-1.014-1.57-1.014-1.57c-0.043-1.563-0.299-1.734-0.299-1.734
					c-0.674-0.461-0.672,2.112-0.672,2.112c-0.212,1.612-1.438,1.228-1.438,1.228c-0.841-0.293-1.056-3.252-1.056-3.252
					c-0.722-0.763-0.722,1.27-0.722,1.27c-0.298,2.324-1.063,1.861-1.063,1.861c-1.346,0.121-1.133-1.99-1.133-1.99
					c0.043-1.818-0.765-1.057-0.765-1.057c-0.128,3.047-0.841,3.088-0.841,3.088c-1.396,0.25-1.527-1.356-1.527-1.356
					c-0.184-2.253-0.537-3.371-0.845-3.928l-4.501,4.5c0.143,1.354,0.17,3.003-0.385,3.87c-0.114,0.229-0.266,0.442-0.456,0.627
					c-0.657,0.658-1.597,0.873-2.431,0.63c-0.394-0.116-0.754-0.32-1.063-0.63c-0.544-0.539-0.778-1.264-0.717-1.973
					c-0.705,0.063-1.432-0.173-1.973-0.707c-0.308-0.313-0.514-0.678-0.629-1.07c-0.244-0.824-0.025-1.773,0.629-2.43
					c0.185-0.191,0.398-0.336,0.627-0.449c0.869-0.563,2.518-0.533,3.871-0.393l2.9-2.9c-2.5-1.033-1.719-3.729-0.911-4.578
					c1.009-1.055,0.851-2.531,0.851-2.531c-1.656-5.07-0.57-8.729-0.57-8.729c0.195-0.662,0.441-1.254,0.707-1.816l-2.982-2.98
					c-1.345,0.148-2.994,0.17-3.871-0.388c-0.229-0.114-0.443-0.263-0.629-0.446c-0.656-0.664-0.867-1.598-0.627-2.439
					c0.107-0.387,0.322-0.747,0.627-1.063c0.543-0.534,1.27-0.774,1.979-0.712c-0.064-0.706,0.17-1.434,0.713-1.977
					c0.305-0.309,0.67-0.514,1.063-0.621c0.834-0.241,1.776-0.035,2.432,0.621c0.191,0.193,0.34,0.398,0.455,0.63
					c0.559,0.87,0.527,2.517,0.394,3.877L27.34,99.673z M62.659,80.869H10.602v-0.671c0-8.237,4.906-13.434,10.095-18.933
					c3.86-4.092,8.075-8.57,10.12-14.523h11.627c2.054,5.954,6.261,10.431,10.124,14.523c5.19,5.499,10.09,10.698,10.09,18.933
					v0.671H62.659z"/>
			</g>
		</g>
	</g>
	<path fill="#EF5024" d="M28.68,116.921c0.394,0.228,0.828,0.407,1.311,0.506c2.035,0.413,3.967-0.669,4.326-2.417
		c0.195-1.021-0.182-2.031-0.936-2.795c-0.537-0.537-1.248-0.947-2.099-1.127c-2.039-0.404-3.972,0.67-4.328,2.416
		C26.689,114.843,27.418,116.18,28.68,116.921L28.68,116.921z"/>
	<path fill="#EF5024" d="M34.23,118.57c0,0.511,0.205,0.953,0.52,1.188c0.141,0.105,0.307,0.165,0.484,0.165
		c0.313,0,0.593-0.186,0.777-0.486c0.187,0.302,0.463,0.486,0.777,0.486c0.172,0,0.342-0.06,0.485-0.165
		c0.313-0.235,0.524-0.678,0.521-1.188c0-0.145-0.013-0.288-0.05-0.414c-0.172-1.049-1.731-2.367-1.731-2.367
		s-1.563,1.316-1.742,2.367C34.241,118.291,34.23,118.426,34.23,118.57L34.23,118.57z"/>
	<line fill="none" stroke="#FFFFFF" stroke-width="3" stroke-miterlimit="10" x1="22.86" y1="34.436" x2="49.86" y2="34.436"/>
</g>
</svg>
