<?xml version="1.0" encoding="utf-8"?>
<!-- Generator: Adobe Illustrator 16.0.0, SVG Export Plug-In . SVG Version: 6.00 Build 0)  -->
<!DOCTYPE svg PUBLIC "-//W3C//DTD SVG 1.1//EN" "http://www.w3.org/Graphics/SVG/1.1/DTD/svg11.dtd">
<svg version="1.1" id="Layer_1" xmlns="http://www.w3.org/2000/svg" xmlns:xlink="http://www.w3.org/1999/xlink" x="0px" y="0px"
	 width="65.333px" height="159.75px" viewBox="0 0 65.333 159.75" enable-background="new 0 0 65.333 159.75" xml:space="preserve">
<g>
	<path fill="#F74D1E" d="M7.64,151.006c-1.16,0.352-1.443,1.241-0.539,2.053c3.441,3.062,6.908,4.601,10.403,4.601
		c2.255,0,6.153-1.188,8.786-2.267c4.263-1.783,11.941-2.227,17.689,0c3.604,1.51,6.518,2.267,8.784,2.267
		c3.509,0,6.978-1.539,10.403-4.601c0.905-0.812,0.606-1.701-0.539-2.053c-9-2.752-15.545-11.132-15.545-21.037
		c0-4.844,1.578-9.322,4.235-12.953c2.632-3.59,2.632-5.356-0.013-8.975c-2.658-3.629-4.225-8.098-4.225-12.939
		c0-9.716,6.314-17.948,15.047-20.861c1.146-0.378,1.188-0.932,0.015-1.229c-1.901-0.484-3.914-0.728-6.019-0.728
		c-3.254,0-6.074,0.635-11.77,2.011c-2.104,0.512-4.465,0.795-6.867,0.904c0.014-0.445,0.027-0.904,0.053-1.349
		c0.056-0.891,0.137-1.781,0.23-2.659c0-0.054,0.025-0.203,0.039-0.311c0.027-0.149,0.041-0.297,0.068-0.446
		c0.08-0.499,0.162-1.012,0.256-1.511c0.338-1.769,0.797-3.521,1.35-5.236c0.258-0.822,0.555-1.619,0.863-2.43
		c0.082-0.202,0.162-0.404,0.244-0.593c0.014-0.041,0.025-0.082,0.041-0.108c0.188-0.459,0.404-0.905,0.605-1.35
		c0.756-1.619,1.619-3.184,2.563-4.709c0.459-0.729,0.933-1.444,1.432-2.16c0.243-0.35,0.499-0.701,0.755-1.052
		c0.136-0.174,0.259-0.351,0.394-0.526l0.013-0.013c0.067-0.082,0.135-0.163,0.202-0.257c2.281-2.888,4.898-5.505,7.705-7.88
		c0.352-0.298,0.688-0.581,1.039-0.864c1.242-0.998,1.039-3.091,0-4.129c-1.213-1.214-2.887-0.999-4.129,0
		C45.409,42.298,40.417,48.074,36.963,54.7c-1.055,2.01-1.943,4.087-2.688,6.207c-1.146-6.167-3.427-11.712-6.854-16.612
		c-2.686-3.845-6.303-6.949-10.351-9.296c-2.267-1.309-4.655-2.402-7.11-3.307c-1.377-0.512-2.768-0.957-4.17-1.363
		c-1.606-0.458-3.186-1.309-3.766,0.702c-0.675,2.361,0.014,5.532,0.379,7.921c0.633,3.103,1.375,5.465,2.307,8.339
		c1.957,4.939,5.047,9.541,9.27,13.75c3.644,3.589,7.246,5.992,10.836,7.22c1.742,0.552,4.184,1.011,7.328,1.362
		c-0.27,1.795-0.419,3.617-0.473,5.438c-2.078-0.148-4.049-0.432-5.763-0.808c-5.167-1.135-8.514-2.012-11.767-2.012
		c-2.104,0-4.102,0.243-6.004,0.729c-1.174,0.296-1.135,0.85,0.014,1.227c8.744,2.902,15.045,11.146,15.045,20.864
		c0,4.844-1.578,9.311-4.236,12.939c-2.645,3.604-2.645,5.37-0.014,8.973c2.658,3.631,4.25,8.11,4.25,12.954
		C23.185,139.874,16.641,148.24,7.64,151.006z M39.364,109.418c0.297-1.523,1.754-2.511,3.279-2.213
		c1.525,0.297,2.51,1.754,2.213,3.279c-0.094,0.512-0.337,0.971-0.661,1.336l-6.76,7.584L39.364,109.418z M26.343,107.854
		c1.16-1.025,2.928-0.932,3.953,0.229c0.352,0.391,0.567,0.863,0.662,1.336l1.93,9.973l-6.761-7.584
		C25.088,110.645,25.196,108.879,26.343,107.854z"/>
	<g>
		<path fill="#FFFFFF" d="M1.741,28.767c0,0,1.926,2.312,4.654,5.853c0.682,0.886,1.439,1.832,2.199,2.858
			c0.776,1.015,1.595,2.085,2.44,3.192c1.706,2.201,3.464,4.592,5.303,6.915c0.888,1.187,1.793,2.358,2.706,3.493
			c0.903,1.144,1.781,2.273,2.658,3.347c0.862,1.088,1.731,2.102,2.537,3.086c0.8,0.992,1.618,1.861,2.335,2.712
			c0.717,0.853,1.435,1.564,2.046,2.232c0.309,0.332,0.598,0.643,0.864,0.93c0.274,0.278,0.541,0.518,0.775,0.744
			c0.939,0.9,1.474,1.442,1.474,1.442s-0.649-0.365-1.781-1.051c-0.28-0.175-0.6-0.36-0.933-0.58
			c-0.318-0.237-0.663-0.493-1.031-0.768c-0.73-0.556-1.593-1.157-2.419-1.925c-0.842-0.751-1.803-1.531-2.696-2.465
			c-0.912-0.916-1.914-1.855-2.836-2.919c-0.941-1.05-1.951-2.106-2.868-3.266c-0.948-1.135-1.894-2.302-2.811-3.488
			c-0.915-1.19-1.792-2.406-2.659-3.599c-0.885-1.181-1.655-2.415-2.454-3.569c-0.789-1.161-1.496-2.321-2.182-3.41
			c-0.677-1.094-1.299-2.14-1.854-3.117C2.959,31.523,1.741,28.767,1.741,28.767z"/>
	</g>
</g>
</svg>
