<?xml version="1.0" encoding="utf-8"?>
<!-- Generator: Adobe Illustrator 16.0.0, SVG Export Plug-In . SVG Version: 6.00 Build 0)  -->
<!DOCTYPE svg PUBLIC "-//W3C//DTD SVG 1.1//EN" "http://www.w3.org/Graphics/SVG/1.1/DTD/svg11.dtd">
<svg version="1.1" id="Layer_1" xmlns="http://www.w3.org/2000/svg" xmlns:xlink="http://www.w3.org/1999/xlink" x="0px" y="0px"
	 width="148.667px" height="149.333px" viewBox="0 0 148.667 149.333" enable-background="new 0 0 148.667 149.333"
	 xml:space="preserve">
<circle fill="#AAD048" stroke="#623633" stroke-width="6" stroke-miterlimit="10" cx="74.288" cy="74.998" r="70"/>
<g>
	<path fill="#623633" d="M33.539,82.5c0,0.75-0.13,1.438-0.389,2.064c-0.258,0.626-0.646,1.173-1.162,1.641
		c-0.516,0.467-1.162,0.83-1.937,1.088c-0.775,0.26-1.671,0.389-2.688,0.389c-1.167,0-2.138-0.162-2.913-0.487
		c-0.775-0.325-1.4-0.729-1.875-1.215c-0.475-0.483-0.813-1.015-1.013-1.59s-0.3-1.104-0.3-1.589c0-0.502,0.066-0.961,0.2-1.377
		c0.133-0.418,0.316-0.797,0.55-1.141c0.233-0.342,0.496-0.654,0.788-0.938c0.291-0.283,0.604-0.551,0.938-0.801
		c-0.717-0.584-1.246-1.157-1.588-1.723c-0.342-0.566-0.512-1.291-0.512-2.173c0-0.666,0.137-1.307,0.413-1.923
		c0.275-0.615,0.662-1.152,1.162-1.61c0.5-0.457,1.104-0.823,1.813-1.098c0.708-0.275,1.496-0.412,2.363-0.412
		c1.016,0,1.887,0.146,2.612,0.437c0.726,0.292,1.321,0.662,1.788,1.111c0.466,0.449,0.803,0.952,1.012,1.51s0.313,1.11,0.313,1.66
		c0,0.799-0.213,1.544-0.637,2.234c-0.426,0.689-0.955,1.234-1.588,1.635c0.949,0.618,1.629,1.266,2.037,1.939
		C33.334,80.809,33.539,81.6,33.539,82.5z M24.888,82.653c0,0.2,0.045,0.422,0.137,0.664c0.092,0.242,0.238,0.465,0.438,0.664
		c0.2,0.2,0.458,0.367,0.775,0.501c0.316,0.134,0.7,0.2,1.15,0.2c0.866,0,1.5-0.208,1.9-0.626s0.6-0.886,0.6-1.403
		c0-0.385-0.087-0.729-0.263-1.027c-0.175-0.301-0.413-0.563-0.712-0.789c-0.299-0.227-0.654-0.426-1.063-0.603
		c-0.409-0.176-0.846-0.339-1.313-0.489c-0.467,0.353-0.858,0.762-1.175,1.229C25.046,81.441,24.888,82,24.888,82.653z
		 M29.513,74.427c0-0.183-0.038-0.378-0.113-0.585c-0.075-0.208-0.2-0.403-0.375-0.586c-0.175-0.184-0.396-0.337-0.662-0.462
		c-0.267-0.124-0.592-0.187-0.975-0.187c-0.367,0-0.684,0.058-0.95,0.174c-0.267,0.117-0.487,0.271-0.663,0.462
		c-0.175,0.191-0.304,0.395-0.387,0.61c-0.083,0.217-0.125,0.424-0.125,0.623c0,0.532,0.196,1.03,0.587,1.496
		c0.392,0.466,1.063,0.864,2.013,1.196c0.533-0.332,0.941-0.715,1.225-1.146C29.371,75.59,29.513,75.059,29.513,74.427z"/>
	<path fill="#623633" d="M47.837,78.631c0,2.918-0.554,5.154-1.662,6.714c-1.108,1.559-2.638,2.337-4.588,2.337
		c-1.949,0-3.479-0.778-4.587-2.337c-1.108-1.56-1.663-3.796-1.663-6.714c0-1.449,0.146-2.732,0.438-3.849
		c0.292-1.116,0.713-2.059,1.263-2.825c0.55-0.766,1.208-1.35,1.976-1.75c0.766-0.4,1.625-0.6,2.574-0.6
		c1.95,0,3.479,0.779,4.588,2.337C47.284,73.503,47.837,75.733,47.837,78.631z M44.038,78.631c0-0.865-0.042-1.652-0.125-2.361
		c-0.083-0.708-0.217-1.32-0.399-1.838c-0.184-0.516-0.434-0.916-0.75-1.199c-0.317-0.283-0.709-0.426-1.176-0.426
		c-0.467,0-0.854,0.143-1.162,0.426c-0.308,0.283-0.559,0.684-0.75,1.199c-0.191,0.518-0.329,1.13-0.412,1.838
		c-0.084,0.709-0.125,1.496-0.125,2.361c0,0.867,0.041,1.66,0.125,2.375c0.083,0.718,0.221,1.334,0.412,1.852
		c0.191,0.518,0.441,0.916,0.75,1.199c0.309,0.283,0.695,0.426,1.162,0.426c0.467,0,0.858-0.143,1.176-0.426
		c0.316-0.283,0.566-0.684,0.75-1.199c0.183-0.518,0.316-1.134,0.399-1.852C43.996,80.292,44.038,79.5,44.038,78.631z"/>
	<path fill="#623633" d="M58.413,74.458c0,1.566-0.399,2.767-1.2,3.6c-0.8,0.834-1.875,1.25-3.225,1.25
		c-1.35,0-2.426-0.416-3.225-1.25c-0.801-0.833-1.201-2.033-1.201-3.6s0.4-2.767,1.201-3.6c0.799-0.834,1.875-1.25,3.225-1.25
		c1.35,0,2.425,0.416,3.225,1.25C58.013,71.691,58.413,72.891,58.413,74.458z M55.587,74.458c0-0.85-0.15-1.467-0.449-1.85
		c-0.301-0.384-0.684-0.575-1.15-0.575c-0.484,0-0.871,0.191-1.162,0.575c-0.293,0.383-0.438,1-0.438,1.85s0.145,1.471,0.438,1.862
		c0.291,0.392,0.678,0.589,1.162,0.589c0.467,0,0.85-0.197,1.15-0.589C55.437,75.928,55.587,75.307,55.587,74.458z M63.288,70.007
		h3.476l-9.775,17.326h-3.475L63.288,70.007z M70.763,82.881c0,1.568-0.4,2.768-1.201,3.602c-0.799,0.833-1.875,1.25-3.225,1.25
		s-2.425-0.417-3.225-1.25c-0.801-0.834-1.2-2.033-1.2-3.602c0-1.565,0.399-2.766,1.2-3.6c0.8-0.832,1.875-1.25,3.225-1.25
		s2.426,0.418,3.225,1.25C70.363,80.116,70.763,81.316,70.763,82.881z M67.937,82.881c0-0.85-0.149-1.465-0.449-1.85
		c-0.301-0.384-0.684-0.574-1.15-0.574c-0.483,0-0.871,0.19-1.162,0.574c-0.292,0.385-0.438,1-0.438,1.85
		c0,0.852,0.146,1.473,0.438,1.863c0.291,0.393,0.679,0.588,1.162,0.588c0.467,0,0.85-0.195,1.15-0.588
		C67.788,84.354,67.937,83.733,67.937,82.881z"/>
	<path fill="#623633" d="M72.263,78.182h7.25v3.375h-7.25V78.182z"/>
	<path fill="#623633" d="M89.187,80.458c-0.35,0.168-0.736,0.287-1.162,0.362c-0.425,0.075-0.787,0.112-1.088,0.112
		c-1.083,0-2.008-0.129-2.773-0.387c-0.768-0.26-1.396-0.625-1.889-1.102c-0.492-0.475-0.854-1.046-1.088-1.712
		c-0.232-0.667-0.35-1.399-0.35-2.2c0-0.667,0.113-1.351,0.338-2.05c0.225-0.7,0.578-1.338,1.063-1.913
		c0.482-0.575,1.096-1.05,1.838-1.425c0.74-0.375,1.637-0.563,2.688-0.563c2.149,0,3.771,0.662,4.86,1.987
		c1.092,1.325,1.64,3.229,1.64,5.714c0,1.633-0.214,3.074-0.64,4.324c-0.424,1.25-1.082,2.301-1.975,3.148
		c-0.893,0.852-2.029,1.496-3.412,1.938c-1.384,0.442-3.025,0.671-4.926,0.688c-0.016-0.533-0.041-1.051-0.074-1.551
		s-0.066-1.017-0.1-1.549c0.949-0.018,1.808-0.089,2.574-0.214c0.766-0.125,1.44-0.333,2.024-0.625
		c0.583-0.291,1.078-0.679,1.487-1.161C88.632,81.799,88.955,81.191,89.187,80.458z M87.363,78.034c0.383,0,0.783-0.039,1.199-0.113
		c0.417-0.074,0.727-0.18,0.926-0.313v-0.227c0-0.065,0.004-0.133,0.012-0.199c0.01-0.066,0.015-0.125,0.015-0.176
		c-0.019-0.6-0.067-1.161-0.15-1.688c-0.084-0.524-0.225-0.983-0.426-1.375c-0.199-0.392-0.472-0.7-0.813-0.925
		s-0.762-0.338-1.262-0.338c-0.4,0-0.75,0.084-1.051,0.25c-0.299,0.167-0.541,0.384-0.725,0.65c-0.185,0.266-0.32,0.559-0.412,0.875
		s-0.139,0.625-0.139,0.925c0,0.9,0.221,1.566,0.664,2C85.642,77.816,86.363,78.034,87.363,78.034z"/>
	<path fill="#623633" d="M107.687,78.631c0,2.918-0.555,5.154-1.662,6.714c-1.107,1.559-2.638,2.337-4.588,2.337
		c-1.949,0-3.479-0.778-4.587-2.337c-1.108-1.56-1.663-3.796-1.663-6.714c0-1.449,0.146-2.732,0.438-3.849
		c0.293-1.116,0.713-2.059,1.264-2.825c0.55-0.766,1.208-1.35,1.976-1.75c0.767-0.4,1.625-0.6,2.574-0.6
		c1.95,0,3.479,0.779,4.588,2.337C107.132,73.503,107.687,75.733,107.687,78.631z M103.887,78.631c0-0.865-0.042-1.652-0.125-2.361
		c-0.083-0.708-0.218-1.32-0.399-1.838c-0.184-0.516-0.434-0.916-0.75-1.199c-0.316-0.283-0.709-0.426-1.176-0.426
		s-0.854,0.143-1.162,0.426c-0.309,0.283-0.559,0.684-0.75,1.199c-0.191,0.518-0.329,1.13-0.412,1.838
		c-0.084,0.709-0.125,1.496-0.125,2.361c0,0.867,0.041,1.66,0.125,2.375c0.083,0.718,0.221,1.334,0.412,1.852
		s0.441,0.916,0.75,1.199s0.695,0.426,1.162,0.426s0.857-0.143,1.176-0.426c0.316-0.283,0.566-0.684,0.75-1.199
		c0.184-0.518,0.316-1.134,0.399-1.852C103.845,80.292,103.887,79.5,103.887,78.631z"/>
	<path fill="#623633" d="M118.261,74.458c0,1.566-0.398,2.767-1.199,3.6c-0.801,0.834-1.875,1.25-3.225,1.25
		c-1.351,0-2.426-0.416-3.226-1.25c-0.801-0.833-1.2-2.033-1.2-3.6s0.399-2.767,1.2-3.6c0.8-0.834,1.875-1.25,3.226-1.25
		c1.35,0,2.424,0.416,3.225,1.25C117.863,71.691,118.261,72.891,118.261,74.458z M115.437,74.458c0-0.85-0.15-1.467-0.449-1.85
		c-0.301-0.384-0.684-0.575-1.15-0.575c-0.483,0-0.871,0.191-1.162,0.575c-0.293,0.383-0.438,1-0.438,1.85s0.145,1.471,0.438,1.862
		c0.291,0.392,0.679,0.589,1.162,0.589c0.468,0,0.851-0.197,1.15-0.589C115.287,75.928,115.437,75.307,115.437,74.458z
		 M123.136,70.007h3.477l-9.775,17.326h-3.475L123.136,70.007z M130.613,82.881c0,1.568-0.4,2.768-1.201,3.602
		c-0.799,0.833-1.875,1.25-3.225,1.25s-2.426-0.417-3.225-1.25c-0.801-0.834-1.201-2.033-1.201-3.602c0-1.565,0.4-2.766,1.201-3.6
		c0.799-0.832,1.875-1.25,3.225-1.25s2.426,0.418,3.225,1.25C130.212,80.116,130.613,81.316,130.613,82.881z M127.787,82.881
		c0-0.85-0.149-1.465-0.449-1.85c-0.301-0.384-0.684-0.574-1.149-0.574c-0.483,0-0.871,0.19-1.162,0.574
		c-0.293,0.385-0.438,1-0.438,1.85c0,0.852,0.146,1.473,0.438,1.863c0.291,0.393,0.679,0.588,1.162,0.588
		c0.467,0,0.851-0.195,1.149-0.588C127.636,84.354,127.787,83.733,127.787,82.881z"/>
</g>
</svg>
