<?xml version="1.0" encoding="utf-8"?>
<!-- Generator: Adobe Illustrator 16.0.0, SVG Export Plug-In . SVG Version: 6.00 Build 0)  -->
<!DOCTYPE svg PUBLIC "-//W3C//DTD SVG 1.1//EN" "http://www.w3.org/Graphics/SVG/1.1/DTD/svg11.dtd">
<svg version="1.1" id="Layer_1" xmlns="http://www.w3.org/2000/svg" xmlns:xlink="http://www.w3.org/1999/xlink" x="0px" y="0px"
	 width="183.334px" height="183px" viewBox="0 0 183.334 183" enable-background="new 0 0 183.334 183" xml:space="preserve">
<g>
	<circle fill="#613532" cx="91.336" cy="90.931" r="90"/>
	<path fill="#96C03D" d="M54.211,131.955l9.527-64.982c0,0,1.15-6.967,5.75-6.967s39.59,0,44.352,0c4.764,0,6.242,6.597,6.242,6.597
		l8.377,65.352H54.211z"/>
	<path fill="#96C03D" d="M110.613,51.121H99.057v-2.218c0-0.952-0.773-1.725-1.725-1.725H85.014c-0.955,0-1.727,0.773-1.727,1.725
		v2.218H72.219c-0.965,0-1.744,1.757-1.744,2.71v0.494c0,0.953,0.779,2.71,1.744,2.71h38.395c0.965,0,1.254-1.758,1.254-2.71v-0.494
		C111.867,52.878,111.578,51.121,110.613,51.121z"/>
	<path fill="none" stroke="#613532" stroke-width="3" stroke-miterlimit="10" d="M72.937,133.684v-39.03c0,0,0.83-2.615,2.959-2.615
		c2.131,0,28.58,0,31.043,0c2.465,0,2.465,2.615,2.465,2.615v39.03"/>
	
		<line fill="none" stroke="#613532" stroke-width="2.6637" stroke-linecap="round" stroke-miterlimit="10" x1="87.17" y1="99.022" x2="95.17" y2="99.022"/>
	<rect x="73.667" y="103.5" fill="#613532" width="35.737" height="29.211"/>
	<path fill="#FBB03B" d="M94.449,113.931c-4.178,3.283-3.236,6.47-2.471,7.899c-0.631,1.146-1.1,2.179-1.441,3.089
		c-0.207-3.511-0.826-6.003-1.428-7.665c0.592-1.019,1.188-3.061-1.348-5.436c-3.424-3.207-8.541-1.592-8.541-1.592
		c4.123,2.515,1.596,5.59,3.973,7.816c1.375,1.287,2.883,1.141,3.963,0.732c-0.301-1.56-0.975-4.356-2.123-5.633
		c0,0,1.709,1.611,2.898,3.65c0.803,1.9,1.787,5.514,1.705,11.359c0.006,1.084,0.004,1.596,0.014,1.652
		c0.037,0.221,0.227,0.383,0.449,0.383c0.01,0,0.02,0,0.027-0.002c0.234-0.014,0.42-0.201,0.432-0.436
		c0.023-0.531,0.039-1.045,0.047-1.544c0.16-1.169,0.637-3.032,1.953-5.521c0.002,0.002,0.002,0.004,0.004,0.006
		c1.873-3.551,5.633-6.521,5.633-6.521c-1.805,1.688-3.117,5.612-3.742,7.812c1.5,0.721,3.643,1.117,5.775-0.557
		c3.684-2.895,0.445-7.62,6.664-10.711C106.893,112.715,99.758,109.761,94.449,113.931z"/>
	<line fill="none" stroke="#F74D1E" stroke-width="2" stroke-miterlimit="10" x1="75" y1="131.002" x2="108" y2="131.002"/>
	
		<line fill="none" stroke="#613532" stroke-width="3" stroke-linecap="round" stroke-miterlimit="10" x1="72.5" y1="74.002" x2="72.5" y2="83.002"/>
	
		<line fill="none" stroke="#613532" stroke-width="3" stroke-linecap="round" stroke-miterlimit="10" x1="77.5" y1="74.002" x2="77.5" y2="83.002"/>
	
		<line fill="none" stroke="#613532" stroke-width="3" stroke-linecap="round" stroke-miterlimit="10" x1="82.5" y1="74.002" x2="82.5" y2="83.002"/>
	
		<line fill="none" stroke="#613532" stroke-width="3" stroke-linecap="round" stroke-miterlimit="10" x1="99.5" y1="74.002" x2="99.5" y2="83.002"/>
	
		<line fill="none" stroke="#613532" stroke-width="3" stroke-linecap="round" stroke-miterlimit="10" x1="104.5" y1="74.002" x2="104.5" y2="83.002"/>
	
		<line fill="none" stroke="#613532" stroke-width="3" stroke-linecap="round" stroke-miterlimit="10" x1="109.5" y1="74.002" x2="109.5" y2="83.002"/>
</g>
</svg>
