<?xml version="1.0" encoding="utf-8"?>
<!-- Generator: Adobe Illustrator 16.0.0, SVG Export Plug-In . SVG Version: 6.00 Build 0)  -->
<!DOCTYPE svg PUBLIC "-//W3C//DTD SVG 1.1//EN" "http://www.w3.org/Graphics/SVG/1.1/DTD/svg11.dtd">
<svg version="1.1" id="Layer_1" xmlns="http://www.w3.org/2000/svg" xmlns:xlink="http://www.w3.org/1999/xlink" x="0px" y="0px"
	 width="183.334px" height="183px" viewBox="0 0 183.334 183" enable-background="new 0 0 183.334 183" xml:space="preserve">
<circle fill="#613532" cx="91.236" cy="91.327" r="90"/>
<path fill="none" d="M87.701,95.676c0-8.598,6.314-10.533,6.449-10.265c-4.434,4.299-6.449,19.022-6.449,19.022h4.172
	c0,0,0-4.458,0-8.758c12.064,0.672,8.662-20.017,8.662-21.495C75.547,80.092,87.701,95.676,87.701,95.676z"/>
<g>
	<path fill="#F74D1E" d="M101.444,120.248H81.134c-1.124,0-2.032,0.631-2.032,1.754s0.908,1.754,2.032,1.754h20.311
		c1.122,0,2.03-0.631,2.03-1.754S102.566,120.248,101.444,120.248z"/>
	<path fill="#96C03D" d="M91.287,65.169c-11.217,0-20.31,9.029-20.31,20.248c0,11.044,6.657,12.032,7.9,24.31h0.006
		c0,0.876,0.908,1.753,2.03,1.753h20.746c1.124,0,2.032-0.706,2.032-1.829c1.249-12.043,7.906-13.229,7.906-24.271
		C111.599,74.16,102.508,65.169,91.287,65.169z M91.267,99.696c0,4.063,0,8.275,0,8.275h-3.941c0,0,1.904-13.912,6.094-17.974
		c-0.128-0.254-6.094,1.613-6.094,9.737c0,0-11.484-14.744,12.126-20.33C99.451,80.802,102.666,100.331,91.267,99.696z"/>
	<path fill="#F74D1E" d="M87.228,129.895h8.123c2.244,0,4.063-1.754,4.063-3.508h-16.25
		C83.163,128.141,84.981,129.895,87.228,129.895z"/>
	<path fill="#F74D1E" d="M101.444,114.11H81.134c-1.124,0-2.032,0.631-2.032,1.753c0,1.123,0.908,1.754,2.032,1.754h20.311
		c1.122,0,2.03-0.631,2.03-1.754C103.475,114.741,102.566,114.11,101.444,114.11z"/>
</g>
<line fill="none" stroke="#FBB03B" stroke-width="2.8346" stroke-linecap="round" stroke-miterlimit="10" x1="91.573" y1="51.759" x2="91.573" y2="60.263"/>
<line fill="none" stroke="#FBB03B" stroke-width="2.8346" stroke-linecap="round" stroke-miterlimit="10" x1="67.725" y1="61.563" x2="73.738" y2="67.577"/>
<line fill="none" stroke="#FBB03B" stroke-width="2.8346" stroke-linecap="round" stroke-miterlimit="10" x1="114.478" y1="61.563" x2="108.464" y2="67.577"/>
</svg>
