<?xml version="1.0" encoding="utf-8"?>
<!-- Generator: Adobe Illustrator 16.0.0, SVG Export Plug-In . SVG Version: 6.00 Build 0)  -->
<!DOCTYPE svg PUBLIC "-//W3C//DTD SVG 1.1//EN" "http://www.w3.org/Graphics/SVG/1.1/DTD/svg11.dtd">
<svg version="1.1" id="Layer_1" xmlns="http://www.w3.org/2000/svg" xmlns:xlink="http://www.w3.org/1999/xlink" x="0px" y="0px"
	 width="95px" height="157.999px" viewBox="0 0 95 157.999" enable-background="new 0 0 95 157.999" xml:space="preserve">
<g>
	<rect x="17.015" y="85.197" fill="#F74D1E" width="62.154" height="4.809"/>
	<rect x="17.015" y="98.216" fill="#F74D1E" width="62.154" height="4.81"/>
	<rect x="17.015" y="111.236" fill="#F74D1E" width="62.154" height="4.809"/>
	<path fill="#F74D1E" d="M63.837,37.311H19.908c-9.28,0-16.833,7.55-16.833,16.831v85.454c0,9.282,7.553,16.833,16.833,16.833
		h56.367c9.282,0,16.833-7.551,16.833-16.833V63.17L63.837,37.311z M88.3,139.596c0,6.63-5.396,12.024-12.024,12.024H19.908
		c-6.627,0-12.022-5.395-12.022-12.024V54.142c0-6.629,5.396-12.023,12.022-12.023h41.477v17.928
		c0.772,4.005,4.474,5.137,7.478,5.137h19.264l0.174,0.153V139.596z"/>
</g>
</svg>
