<?xml version="1.0" encoding="utf-8"?>
<!-- Generator: Adobe Illustrator 16.0.0, SVG Export Plug-In . SVG Version: 6.00 Build 0)  -->
<!DOCTYPE svg PUBLIC "-//W3C//DTD SVG 1.1//EN" "http://www.w3.org/Graphics/SVG/1.1/DTD/svg11.dtd">
<svg version="1.1" id="Layer_1" xmlns="http://www.w3.org/2000/svg" xmlns:xlink="http://www.w3.org/1999/xlink" x="0px" y="0px"
	 width="73.667px" height="192.665px" viewBox="0 -1 73.667 192.665" enable-background="new 0 -1 73.667 192.665"
	 xml:space="preserve">
<g>
	<path fill="none" stroke="#F74D1E" stroke-width="5.6" stroke-miterlimit="10" d="M24.523,11.78c0,0-0.351-6.55,7.235-6.415h12.896
		c0,0,6.521-0.001,6.24,6.824v17.298c0,0,24.959,52.831,14.563,76.965c0,0-9.154,19.547,0,38.27c0,0,7.834,14.388,1.436,36.388
		c-0.275,0.945-10.291,10.521-19.324,1.886c0,0-11.23,10.813-20.384-1.25c0,0-11.646,12.896-20.798-2.498
		c0,0-6.241-22.043,2.913-36.604c0,0,7.488-16.644-0.417-34.947c0,0-12.882-20.027,15.668-77.782
		C24.549,29.91,24.523,11.78,24.523,11.78z"/>
	<rect x="11.462" y="107.691" fill="#F74D1E" width="51.025" height="31.828"/>
	
		<line fill="none" stroke="#FFFFFF" stroke-width="3.3279" stroke-miterlimit="10" x1="21.777" y1="118.864" x2="51.177" y2="118.864"/>
	
		<line fill="none" stroke="#FFFFFF" stroke-width="3.3279" stroke-miterlimit="10" x1="21.777" y1="128.075" x2="51.177" y2="128.075"/>
	<line fill="none" stroke="#F74D1E" stroke-width="3.3" stroke-miterlimit="10" x1="30.984" y1="27.075" x2="44.964" y2="27.075"/>
</g>
</svg>
