<?xml version="1.0" encoding="utf-8"?>
<!-- Generator: Adobe Illustrator 16.0.0, SVG Export Plug-In . SVG Version: 6.00 Build 0)  -->
<!DOCTYPE svg PUBLIC "-//W3C//DTD SVG 1.1//EN" "http://www.w3.org/Graphics/SVG/1.1/DTD/svg11.dtd">
<svg version="1.1" id="Layer_1" xmlns="http://www.w3.org/2000/svg" xmlns:xlink="http://www.w3.org/1999/xlink" x="0px" y="0px"
	 width="200px" height="200px" viewBox="18.836 7.113 200 200" enable-background="new 18.836 7.113 200 200" xml:space="preserve">
<g>
	<path fill="#F74D1E" d="M78.439,119.746c4.969,0,9,3.494,9,7.808v4.44h62.408v-4.44c0-4.313,4.024-7.808,8.997-7.808
		s9,3.494,9,7.808v4.44h32.082V94.093H37.717v37.901h31.721v-4.44C69.438,123.24,73.467,119.746,78.439,119.746z"/>
	<path fill="#F74D1E" d="M167.844,140.226v7.413c0,4.313-4.027,7.81-9,7.81s-8.997-3.496-8.997-7.81v-7.413H87.439v7.413
		c0,4.313-4.031,7.81-9,7.81c-4.972,0-9.001-3.496-9.001-7.81v-7.413H37.747v59.632h162.209v-59.632H167.844z"/>
	<path fill="none" stroke="#F74D1E" stroke-width="12.4058" stroke-miterlimit="10" d="M78.771,100.369V79.757
		c0-5.601,4.202-10.14,9.387-10.14h61.33c5.183,0,9.385,4.539,9.385,10.14v20.613"/>
</g>
</svg>
