<?xml version="1.0" encoding="utf-8"?>
<!-- Generator: Adobe Illustrator 16.0.0, SVG Export Plug-In . SVG Version: 6.00 Build 0)  -->
<!DOCTYPE svg PUBLIC "-//W3C//DTD SVG 1.1//EN" "http://www.w3.org/Graphics/SVG/1.1/DTD/svg11.dtd">
<svg version="1.1" id="Layer_1" xmlns="http://www.w3.org/2000/svg" xmlns:xlink="http://www.w3.org/1999/xlink" x="0px" y="0px"
	 width="200px" height="200px" viewBox="34.5 39.134 200 200" enable-background="new 34.5 39.134 200 200" xml:space="preserve">
<path fill="none" stroke="#FFFFFF" stroke-width="8.2988" stroke-miterlimit="10" d="M-352.493,679.843"/>
<g>
	<path fill="#F74D1E" d="M108.22,169.083c-0.706,0-1.429,0.016-2.148,0.016c-14.986,0-29.128-1.646-39.834-4.625
		c-5.517-1.533-9.936-3.373-13.13-5.481c-0.464-0.31-0.894-0.61-1.308-0.92v23.278c0,8.334,24.3,15.086,54.272,15.086
		c1.528,0,3.043-0.013,4.537-0.048c-2.183-5.704-3.282-11.702-3.282-17.845C107.326,175.339,107.617,172.174,108.22,169.083z"/>
	<path fill="#F74D1E" d="M123.893,138.857c2.216-2.081,4.589-3.97,7.099-5.648c-7.668,1.064-16.155,1.631-24.92,1.631
		c-14.986,0-29.128-1.647-39.834-4.634c-5.517-1.533-9.936-3.376-13.13-5.49c-0.464-0.304-0.894-0.613-1.308-0.917v23.213
		c0,0.676,0.171,1.339,0.48,2c3.525,7.41,26.259,13.107,53.792,13.107c1.118,0,2.233-0.017,3.334-0.033
		c0.635-2.144,1.425-4.274,2.372-6.344c1.048-2.34,2.266-4.583,3.658-6.73C117.774,145.347,120.61,141.941,123.893,138.857z"/>
	<path fill="#F74D1E" d="M106.071,103.34c-14.986,0-29.128-1.594-39.834-4.487c-5.517-1.483-9.936-3.266-13.13-5.313
		c-0.464-0.295-0.894-0.594-1.308-0.893v17.803v2.344v0.5c0,0.625,0.156,1.252,0.431,1.846c3.369,7.201,26.191,12.779,53.841,12.779
		s50.474-5.578,53.842-12.779c0.273-0.611,0.428-1.221,0.428-1.846v-0.5v-2.344V92.646c-0.413,0.318-0.842,0.611-1.306,0.893
		c-3.194,2.034-7.613,3.813-13.128,5.313C135.2,101.746,121.055,103.34,106.071,103.34z"/>
	<path fill="#F74D1E" d="M160.341,79.647c0-0.876-0.239-1.735-0.704-2.578c-0.48-0.893-1.202-1.752-2.149-2.575
		c-7.251-6.362-27.528-10.931-51.416-10.931c-23.886,0-44.183,4.569-51.419,10.931c-0.945,0.823-1.667,1.682-2.148,2.575
		c-0.463,0.843-0.705,1.701-0.705,2.578l0,0c0,8.885,24.3,16.085,54.272,16.085C136.043,95.733,160.341,88.532,160.341,79.647
		L160.341,79.647z"/>
	<path fill="#F74D1E" d="M167.914,128.628c-0.532-0.02-1.062-0.033-1.614-0.033c-0.327,0-0.653,0-0.964,0.013
		c-0.854,0.02-1.718,0.053-2.577,0.103c-16.202,1.103-30.363,9.67-39.043,22.317c-2.869,4.179-5.153,8.815-6.702,13.767
		c-0.275,0.858-0.517,1.737-0.74,2.613c-0.222,0.859-0.411,1.735-0.582,2.593c-0.673,3.299-1.015,6.719-1.015,10.207
		c0,6.653,1.253,12.995,3.54,18.819c7.525,19.194,26.223,32.807,48.083,32.807c28.509,0,51.622-23.113,51.622-51.626
		C217.943,152.251,195.685,129.488,167.914,128.628z M181.421,205.078c-2.591,2.729-6.13,4.537-10.187,5.257v2.063
		c0,1.89-1.531,3.417-3.422,3.417h-1.853c-1.894,0-3.424-1.527-3.424-3.417v-2.15c-2.233-0.431-4.38-1.149-6.308-2.131
		c-2.264-1.165-4.243-3.075-5.892-5.653c-1.101-1.717-1.891-3.71-2.372-5.946c-0.189-0.843-0.035-1.683,0.359-2.37
		c0.481-0.859,1.341-1.495,2.39-1.685l1.839-0.327c0.379-0.069,0.754-0.069,1.1,0c1.323,0.208,2.439,1.168,2.782,2.524
		c0.517,2.049,1.222,3.629,2.097,4.744c1.96,2.51,5.19,4.002,8.646,4.002l0,0c0.583,0,1.165-0.049,1.752-0.135
		c2.479-0.376,4.692-1.544,6.22-3.297c1.633-1.859,2.459-4.197,2.459-6.946c0-2.318-0.566-4.208-1.702-5.601
		c-2.081-2.543-5.638-3.646-8.848-4.363c-1.494-0.346-2.923-0.675-4.332-1.069c-2.338-0.668-4.59-1.495-6.839-2.75
		c-2.322-1.287-4.125-3.106-5.38-5.393c-1.237-2.268-1.874-4.88-1.874-7.771c0-0.342,0.018-0.668,0.018-0.995
		c0.052-0.98,0.174-1.906,0.346-2.804c0.223-1.064,0.533-2.076,0.94-3.04c0.912-2.13,2.306-4.022,4.143-5.637
		c1.205-1.05,2.649-1.926,4.281-2.594c1.272-0.534,2.662-0.926,4.125-1.203v-2.784c0-0.412,0.085-0.823,0.222-1.186
		c0.41-1.116,1.395-1.943,2.577-2.164c0.207-0.036,0.414-0.056,0.618-0.056h1.857c0.035,0,0.066,0,0.102,0
		c1.841,0.056,3.319,1.564,3.319,3.405v2.835c3.075,0.603,5.81,1.804,7.873,3.508c2.179,1.803,3.76,4.091,4.74,6.839
		c0.722,2.011-0.603,4.191-2.716,4.501l-1.804,0.274c-1.631,0.243-3.215-0.721-3.73-2.269c-0.429-1.271-1.012-2.319-1.732-3.124
		c-1.637-1.825-4.198-2.872-7.032-2.872c-0.856,0-1.702,0.102-2.506,0.274c-0.534,0.121-1.05,0.275-1.548,0.467
		c-1.408,0.547-2.647,1.355-3.593,2.403c-0.444,0.498-0.808,1.015-1.119,1.564c-0.685,1.238-1.027,2.614-1.027,4.142
		c0,2.164,0.603,4.001,1.802,5.466c1.068,1.271,2.407,2.167,3.919,2.818c2.063,0.892,4.4,1.372,6.702,1.838
		c2.321,0.465,4.727,0.944,6.821,1.873c2.22,0.979,4.077,2.199,5.484,3.611c1.427,1.423,2.525,3.125,3.3,5.083
		c0.755,1.943,1.149,4.077,1.149,6.326C186.183,197.549,184.586,201.743,181.421,205.078z"/>
</g>
</svg>
