<?xml version="1.0" encoding="utf-8"?>
<!-- Generator: Adobe Illustrator 16.0.0, SVG Export Plug-In . SVG Version: 6.00 Build 0)  -->
<!DOCTYPE svg PUBLIC "-//W3C//DTD SVG 1.1//EN" "http://www.w3.org/Graphics/SVG/1.1/DTD/svg11.dtd">
<svg version="1.1" id="Layer_1" xmlns="http://www.w3.org/2000/svg" xmlns:xlink="http://www.w3.org/1999/xlink" x="0px" y="0px"
	 width="142.667px" height="142.667px" viewBox="0 0 142.667 142.667" enable-background="new 0 0 142.667 142.667"
	 xml:space="preserve">
<g>
	<circle fill="#613532" cx="71.667" cy="71" r="70"/>
	<g>
		<path fill="none" stroke="#F74D1E" stroke-width="2.3173" stroke-miterlimit="10" d="M103.9,77.871
			c0-17.084-13.849-30.937-30.933-30.937c-17.088,0-30.936,13.853-30.936,30.937c0,17.086,13.848,30.934,30.936,30.934
			C90.052,108.805,103.9,94.957,103.9,77.871z"/>
		<g>
			<path fill="#96C03D" d="M93.046,87.202c18.808,9.12,15.013,9.068,17.475,10.498c-7.501-4.253-14.128-6.819-18.318-8.545
				c-3.224-1.333-13.905-6.099-19.719-9.143l0.017,0.685c0,0,1.008,28.759,32.891,26.276c11.221-1.498,15.18-1.224,15.18-1.224
				c-1.131-3.779-5.043-37.336-31.771-33.029c-5.945,1.031-10.916,3.007-13.771,4.324C78.413,79.407,84.006,82.822,93.046,87.202z"
				/>
			<path fill="#96C03D" d="M53.789,88.917c-18.296,10.103-16.063,7.032-18.646,8.224c7.79-3.674,13.717-7.61,17.54-10.032
				c2.948-1.868,13.005-7.846,18.846-10.841l-0.571-0.377c0,0-24.072-15.772-40.438,11.707c-5.244,10.03-7.757,13.106-7.757,13.106
				c3.736,1.257,33.411,17.419,45.308-6.901c2.588-5.454,3.84-10.646,4.413-13.737C68.603,81.463,62.586,84.063,53.789,88.917z"/>
			<path fill="#96C03D" d="M72.195,55.538c-0.423-20.896,1.253-17.491,1.404-20.334c-0.374,8.61,0.351,15.683,0.713,20.195
				c0.284,3.485,0.893,15.169,0.824,21.729l0.598-0.332c0,0,25.162-13.963,8.461-41.238c-6.438-9.308-7.989-12.966-7.989-12.966
				c-2.854,2.725-30.962,21.465-14.98,43.313c3.619,4.835,7.638,8.353,10.107,10.297C71.9,72.121,72.4,65.583,72.195,55.538z"/>
		</g>
		<g>
			<path fill="#F74D1E" d="M75.523,104.315c0.1,0.275,0.2,0.518,0.198,0.838c0.016,0.159,0.007,0.321-0.019,0.464
				c-0.022,0.147-0.036,0.308-0.075,0.453c-0.08,0.293-0.186,0.585-0.329,0.851c-0.135,0.273-0.303,0.523-0.481,0.762
				c-0.358,0.479-0.785,0.883-1.241,1.237c-0.225,0.182-0.468,0.335-0.71,0.491c-0.254,0.153-0.482,0.277-0.792,0.423l0.107-2.071
				c0.283,0.164,0.497,0.313,0.737,0.479c0.228,0.171,0.452,0.345,0.666,0.532c0.426,0.377,0.828,0.794,1.17,1.271
				c0.342,0.473,0.644,0.998,0.81,1.591c0.045,0.144,0.074,0.296,0.095,0.449s0.057,0.294,0.039,0.455
				c0.007,0.304-0.064,0.606-0.175,0.869c-0.149-0.262-0.272-0.481-0.44-0.676c-0.163-0.193-0.314-0.374-0.509-0.528
				c-0.349-0.323-0.731-0.607-1.124-0.881c-0.393-0.271-0.787-0.543-1.198-0.798c-0.204-0.13-0.405-0.263-0.613-0.385
				c-0.196-0.127-0.422-0.264-0.594-0.361l-2.082-1.18l2.189-0.892c0.165-0.066,0.396-0.187,0.595-0.287
				c0.209-0.1,0.411-0.216,0.616-0.323c0.406-0.224,0.81-0.453,1.187-0.709c0.377-0.254,0.749-0.521,1.082-0.846
				c0.163-0.159,0.338-0.347,0.47-0.53c0.07-0.097,0.164-0.191,0.216-0.325C75.386,104.564,75.446,104.439,75.523,104.315z"/>
		</g>
		<g>
			<path fill="#F74D1E" d="M48.656,67.239c-0.289-0.047-0.55-0.077-0.829-0.234c-0.146-0.063-0.283-0.149-0.396-0.241
				c-0.117-0.092-0.251-0.181-0.359-0.286c-0.217-0.213-0.421-0.446-0.584-0.7c-0.173-0.251-0.311-0.52-0.432-0.791
				c-0.245-0.546-0.391-1.115-0.479-1.686c-0.05-0.285-0.066-0.571-0.085-0.859c-0.011-0.297-0.009-0.556,0.015-0.897l1.759,1.099
				c-0.28,0.168-0.516,0.282-0.776,0.413c-0.26,0.114-0.52,0.228-0.788,0.323c-0.536,0.189-1.095,0.338-1.679,0.405
				c-0.579,0.069-1.185,0.077-1.784-0.065c-0.146-0.03-0.294-0.078-0.438-0.135c-0.143-0.058-0.284-0.094-0.415-0.188
				c-0.27-0.142-0.499-0.351-0.675-0.575c0.301-0.004,0.553-0.004,0.805-0.057c0.247-0.048,0.479-0.094,0.708-0.188
				c0.451-0.146,0.885-0.343,1.314-0.554c0.428-0.211,0.856-0.424,1.279-0.659c0.211-0.115,0.426-0.228,0.633-0.35
				c0.206-0.109,0.435-0.24,0.604-0.344l2.042-1.25l-0.283,2.349c-0.021,0.177-0.028,0.437-0.037,0.659
				c-0.015,0.231-0.011,0.464-0.016,0.696c-0.002,0.464,0.003,0.928,0.044,1.381c0.039,0.453,0.092,0.909,0.214,1.358
				c0.06,0.219,0.139,0.463,0.235,0.667c0.051,0.109,0.088,0.237,0.18,0.348C48.506,66.998,48.586,67.111,48.656,67.239z"/>
		</g>
		<g>
			<path fill="#F74D1E" d="M95.154,63.526c0.184-0.229,0.34-0.439,0.615-0.603c0.128-0.096,0.271-0.172,0.406-0.224
				c0.138-0.056,0.282-0.128,0.427-0.17c0.293-0.082,0.597-0.143,0.898-0.157c0.303-0.025,0.604-0.011,0.9,0.02
				c0.595,0.06,1.16,0.216,1.698,0.423c0.272,0.099,0.529,0.228,0.788,0.354c0.263,0.138,0.486,0.269,0.771,0.459l-1.828,0.977
				c-0.006-0.326,0.012-0.588,0.029-0.878c0.029-0.283,0.062-0.564,0.112-0.845c0.104-0.559,0.253-1.118,0.486-1.657
				c0.229-0.536,0.522-1.065,0.945-1.514c0.099-0.112,0.214-0.216,0.335-0.313c0.121-0.096,0.223-0.2,0.369-0.268
				c0.257-0.163,0.553-0.258,0.835-0.299c-0.146,0.264-0.271,0.481-0.352,0.727c-0.081,0.238-0.157,0.462-0.189,0.707
				c-0.097,0.465-0.143,0.939-0.175,1.416c-0.03,0.477-0.059,0.954-0.065,1.438c-0.006,0.241-0.016,0.482-0.014,0.724
				c-0.008,0.232-0.008,0.496-0.003,0.694l0.063,2.388l-1.892-1.411c-0.143-0.106-0.364-0.241-0.553-0.359
				c-0.193-0.128-0.397-0.241-0.596-0.36c-0.401-0.233-0.807-0.459-1.219-0.65c-0.413-0.191-0.834-0.372-1.283-0.49
				c-0.22-0.057-0.471-0.11-0.696-0.128c-0.119-0.011-0.248-0.042-0.39-0.017C95.438,63.516,95.3,63.529,95.154,63.526z"/>
		</g>
	</g>
</g>
</svg>
