<?xml version="1.0" encoding="utf-8"?>
<!-- Generator: Adobe Illustrator 16.0.0, SVG Export Plug-In . SVG Version: 6.00 Build 0)  -->
<!DOCTYPE svg PUBLIC "-//W3C//DTD SVG 1.1//EN" "http://www.w3.org/Graphics/SVG/1.1/DTD/svg11.dtd">
<svg version="1.1" id="Layer_1" xmlns="http://www.w3.org/2000/svg" xmlns:xlink="http://www.w3.org/1999/xlink" x="0px" y="0px"
	 width="142.667px" height="142.667px" viewBox="0 0 142.667 142.667" enable-background="new 0 0 142.667 142.667"
	 xml:space="preserve">
<g>
	<circle fill="#613532" cx="71.667" cy="71.667" r="70"/>
	<g>
		<path fill="#96C03D" d="M67.885,71.575c8.544-5.513,18.737-8.82,27.833-9.647c-38.345-53.884-63.695-14.31-67.968-6.71
			c6.597-0.947,24.582-3.114,36.524-0.633c14.847,3.09,18.255,2.969,20.692,2.845c-4.989,1.096-18.382-1.384-23.552-1.975
			c-4.6-0.517-26.165,0.346-33.975,1.717C36.749,78.681,59.444,77.019,67.885,71.575z"/>
		<path fill="#613532" d="M61.414,55.455c5.169,0.591,18.563,3.07,23.552,1.975c-2.437,0.124-5.845,0.245-20.692-2.845
			c-11.942-2.481-29.927-0.314-36.524,0.633c-0.426,0.755-0.644,1.201-0.644,1.201c0.105,0.257,0.224,0.501,0.333,0.753
			C35.25,55.801,56.814,54.938,61.414,55.455z"/>
		<g>
			<g>
				<path fill="#F74D1E" d="M75.777,71.759c-8.54,5.511-18.736,8.817-27.829,9.646c38.346,53.885,63.692,14.311,67.969,6.71
					c-6.599,0.947-24.584,3.113-36.523,0.632c-14.85-3.089-18.258-2.967-20.693-2.847c4.989-1.094,18.381,1.389,23.55,1.975
					c4.6,0.519,26.164-0.345,33.977-1.714C106.919,64.65,84.219,66.314,75.777,71.759z"/>
				<path fill="#F74D1E" d="M115.917,88.115"/>
			</g>
		</g>
	</g>
</g>
</svg>
