<?xml version="1.0" encoding="utf-8"?>
<!-- Generator: Adobe Illustrator 16.0.0, SVG Export Plug-In . SVG Version: 6.00 Build 0)  -->
<!DOCTYPE svg PUBLIC "-//W3C//DTD SVG 1.1//EN" "http://www.w3.org/Graphics/SVG/1.1/DTD/svg11.dtd">
<svg version="1.1" id="Layer_1" xmlns="http://www.w3.org/2000/svg" xmlns:xlink="http://www.w3.org/1999/xlink" x="0px" y="0px"
	 width="142.667px" height="142.667px" viewBox="0 0 142.667 142.667" enable-background="new 0 0 142.667 142.667"
	 xml:space="preserve">
<circle fill="#613532" cx="71.102" cy="71.565" r="70"/>
<path fill="#96C03D" d="M72.229,76.356c-0.025,25.448-1.559,20.91-1.749,24.312c0.48-10.294-0.363-18.755-0.786-24.151
	c-0.323-4.166-1.016-18.133-0.912-25.982l-0.717,0.395c0,0-30.133,16.617-10.249,49.277c7.663,11.153,9.511,15.529,9.511,15.529
	c3.419-3.248,37.091-25.562,18.051-51.737c-4.313-5.787-9.103-10.01-12.051-12.344C72.636,56.535,72.241,64.343,72.229,76.356z"/>
<path fill="#F74D1E" stroke="#613532" stroke-width="0.8" stroke-miterlimit="10" d="M68.874,46.257
	c-0.102-16.446,1.116-18.693,1.116-18.693l7.334-0.167c0,0-3.084,12.789-3.607,20.054c-1.112,15.435-1.477,28.286-1.3,32.446
	c0,0-0.574,24.947-2.5,26.474c0,0,0.908-15.144,0.073-26.641C69.385,71.379,68.879,47.063,68.874,46.257z"/>
</svg>
