<?xml version="1.0" encoding="utf-8"?>
<!-- Generator: Adobe Illustrator 16.0.0, SVG Export Plug-In . SVG Version: 6.00 Build 0)  -->
<!DOCTYPE svg PUBLIC "-//W3C//DTD SVG 1.1//EN" "http://www.w3.org/Graphics/SVG/1.1/DTD/svg11.dtd">
<svg version="1.1" id="Layer_1" xmlns="http://www.w3.org/2000/svg" xmlns:xlink="http://www.w3.org/1999/xlink" x="0px" y="0px"
	 width="200px" height="200px" viewBox="28.034 26.981 200 200" enable-background="new 28.034 26.981 200 200"
	 xml:space="preserve">
<path fill="#F74D1E" d="M210.747,77.587h-56.081c-3.773-11.358-14.306-19.201-26.632-19.201c-12.325,0-22.857,7.842-26.629,19.201
	H45.321v113.697H94.51l-9.702,20.642c-1.823,3.869-0.155,8.493,3.722,10.319c1.063,0.496,2.181,0.735,3.293,0.735
	c2.916,0,5.694-1.649,7.018-4.454l12.809-27.242h32.775l12.808,27.242c1.321,2.805,4.101,4.454,7.018,4.454
	c1.108,0,2.229-0.239,3.292-0.735c3.877-1.826,5.548-6.45,3.721-10.319l-9.702-20.642h49.188V77.587z M128.034,68.724
	c6.53,0,12.266,3.5,15.365,8.864h-30.717C115.771,72.229,121.503,68.724,128.034,68.724z M195.239,175.773H60.833V93.099h134.406
	V175.773z"/>
</svg>
