<?xml version="1.0" encoding="utf-8"?>
<!-- Generator: Adobe Illustrator 16.0.0, SVG Export Plug-In . SVG Version: 6.00 Build 0)  -->
<!DOCTYPE svg PUBLIC "-//W3C//DTD SVG 1.1//EN" "http://www.w3.org/Graphics/SVG/1.1/DTD/svg11.dtd">
<svg version="1.1" id="Layer_1" xmlns="http://www.w3.org/2000/svg" xmlns:xlink="http://www.w3.org/1999/xlink" x="0px" y="0px"
	 width="148.667px" height="149.333px" viewBox="0 0 148.667 149.333" enable-background="new 0 0 148.667 149.333"
	 xml:space="preserve">
<circle fill="#AAD048" stroke="#623633" stroke-width="6" stroke-miterlimit="10" cx="74.617" cy="74.998" r="70"/>
<g>
	<path fill="#623633" d="M65.602,88.708c-0.45,0-0.925-0.028-1.425-0.088c-0.5-0.059-0.984-0.137-1.45-0.236
		c-0.467-0.1-0.892-0.209-1.275-0.325c-0.384-0.116-0.684-0.226-0.899-0.324l0.725-3.101c0.434,0.184,0.987,0.38,1.662,0.588
		c0.676,0.208,1.513,0.313,2.513,0.313c1.15,0,1.991-0.217,2.525-0.65c0.533-0.432,0.8-1.016,0.8-1.75
		c0-0.449-0.096-0.828-0.287-1.137c-0.192-0.309-0.455-0.559-0.788-0.75s-0.729-0.324-1.188-0.399s-0.946-0.112-1.462-0.112h-1.45
		v-3h1.649c0.367,0,0.721-0.033,1.063-0.102c0.342-0.065,0.646-0.178,0.913-0.336s0.479-0.375,0.638-0.65
		c0.158-0.275,0.237-0.621,0.237-1.037c0-0.316-0.067-0.592-0.2-0.825c-0.134-0.233-0.305-0.425-0.513-0.575
		s-0.45-0.263-0.725-0.338c-0.275-0.074-0.555-0.112-0.838-0.112c-0.717,0-1.379,0.108-1.987,0.325
		c-0.608,0.217-1.162,0.483-1.662,0.8l-1.325-2.725c0.267-0.167,0.579-0.342,0.938-0.525c0.358-0.183,0.754-0.35,1.188-0.5
		c0.433-0.149,0.896-0.274,1.388-0.375c0.491-0.1,1.012-0.149,1.563-0.149c1.016,0,1.896,0.12,2.637,0.361
		c0.742,0.242,1.354,0.583,1.838,1.023c0.483,0.441,0.842,0.957,1.075,1.548s0.35,1.235,0.35,1.935c0,0.683-0.191,1.345-0.575,1.983
		c-0.383,0.642-0.899,1.129-1.55,1.461c0.9,0.367,1.596,0.914,2.088,1.641c0.491,0.727,0.737,1.598,0.737,2.615
		c0,0.802-0.134,1.539-0.4,2.216c-0.266,0.676-0.684,1.26-1.25,1.752s-1.287,0.876-2.162,1.151S66.802,88.708,65.602,88.708z"/>
	<path fill="#623633" d="M83.828,75.458c0,1.566-0.399,2.768-1.201,3.601c-0.799,0.834-1.875,1.25-3.225,1.25
		s-2.426-0.416-3.225-1.25c-0.801-0.833-1.201-2.033-1.201-3.601c0-1.566,0.4-2.767,1.201-3.6c0.799-0.834,1.875-1.25,3.225-1.25
		s2.426,0.416,3.225,1.25C83.427,72.691,83.828,73.891,83.828,75.458z M81.001,75.458c0-0.85-0.15-1.466-0.449-1.85
		c-0.301-0.384-0.684-0.575-1.15-0.575c-0.484,0-0.871,0.191-1.162,0.575c-0.293,0.383-0.438,1-0.438,1.85
		c0,0.851,0.145,1.472,0.438,1.862c0.291,0.392,0.678,0.589,1.162,0.589c0.467,0,0.85-0.197,1.15-0.589
		C80.851,76.928,81.001,76.307,81.001,75.458z M88.703,71.007h3.476l-9.775,17.326h-3.475L88.703,71.007z M96.177,83.881
		c0,1.568-0.4,2.768-1.201,3.602c-0.799,0.833-1.875,1.25-3.225,1.25c-1.351,0-2.426-0.417-3.226-1.25
		c-0.801-0.834-1.2-2.033-1.2-3.602c0-1.565,0.399-2.766,1.2-3.6c0.8-0.832,1.875-1.25,3.226-1.25c1.35,0,2.426,0.418,3.225,1.25
		C95.777,81.116,96.177,82.316,96.177,83.881z M93.351,83.881c0-0.85-0.148-1.465-0.449-1.85c-0.301-0.384-0.684-0.574-1.15-0.574
		c-0.482,0-0.871,0.19-1.162,0.574c-0.291,0.385-0.438,1-0.438,1.85c0,0.852,0.146,1.473,0.438,1.863
		c0.291,0.393,0.68,0.588,1.162,0.588c0.467,0,0.851-0.195,1.15-0.588C93.203,85.354,93.351,84.733,93.351,83.881z"/>
</g>
</svg>
