<?xml version="1.0" encoding="utf-8"?>
<!-- Generator: Adobe Illustrator 16.0.0, SVG Export Plug-In . SVG Version: 6.00 Build 0)  -->
<!DOCTYPE svg PUBLIC "-//W3C//DTD SVG 1.1//EN" "http://www.w3.org/Graphics/SVG/1.1/DTD/svg11.dtd">
<svg version="1.1" id="Layer_1" xmlns="http://www.w3.org/2000/svg" xmlns:xlink="http://www.w3.org/1999/xlink" x="0px" y="0px"
	 width="82.667px" height="159.333px" viewBox="0 0 82.667 159.333" enable-background="new 0 0 82.667 159.333"
	 xml:space="preserve">
<g>
	<path fill="none" stroke="#F74D1E" stroke-width="5.6357" stroke-miterlimit="10" d="M67.403,32.442H15.448
		c-6.865,8.237-11.13,19.704-11.13,32.396c0,25.065,16.613,45.386,37.107,45.386c20.495,0,37.109-20.32,37.109-45.386
		C78.535,52.146,74.27,40.679,67.403,32.442z"/>
	
		<line fill="none" stroke="#F74D1E" stroke-width="5.6357" stroke-miterlimit="10" x1="41.425" y1="110.224" x2="41.425" y2="153.96"/>
	
		<line fill="none" stroke="#F74D1E" stroke-width="5.6357" stroke-linecap="round" stroke-miterlimit="10" x1="15.973" y1="154.103" x2="66.925" y2="154.103"/>
	<path fill="#F74D1E" d="M41.778,105.022c15.437,0,29.973-18.476,30.32-36.511H10.465C10.811,86.546,26.338,105.022,41.778,105.022z
		"/>
	<path fill="#EF5125" stroke="#FFFFFF" stroke-width="3.0191" stroke-miterlimit="10" d="M18.964,80.341
		c0,0,4.528,16.253,20.55,18.695"/>
</g>
</svg>
